<svg xmlns="http://www.w3.org/2000/svg" width="42" height="42" viewBox="0 0 42 42">
  <path id="Icon_awesome-plus" data-name="Icon awesome-plus" d="M38.071,18.357H24.893V5.179A2.929,2.929,0,0,0,21.964,2.25H19.036a2.929,2.929,0,0,0-2.929,2.929V18.357H2.929A2.929,2.929,0,0,0,0,21.286v2.929a2.929,2.929,0,0,0,2.929,2.929H16.107V40.321a2.929,2.929,0,0,0,2.929,2.929h2.929a2.929,2.929,0,0,0,2.929-2.929V27.143H38.071A2.929,2.929,0,0,0,41,24.214V21.286A2.929,2.929,0,0,0,38.071,18.357Z" transform="translate(0.5 -1.75)" fill="#593511" stroke="#000" stroke-width="1"/>
</svg>
