<svg xmlns="http://www.w3.org/2000/svg" width="26.577" height="23.732" viewBox="0 0 26.577 23.732">
  <path id="Icon_awesome-cart-plus" data-name="Icon awesome-cart-plus" d="M22.408,14.207H9.393l.291,1.421H21.6a1.066,1.066,0,0,1,1.039,1.3l-.245,1.078a2.487,2.487,0,1,1-2.824.462H10.263a2.486,2.486,0,1,1-2.977-.38L4.168,2.841h-3.1A1.066,1.066,0,0,1,0,1.776v-.71A1.066,1.066,0,0,1,1.066,0H5.617A1.066,1.066,0,0,1,6.661.852l.407,1.989H24.507a1.066,1.066,0,0,1,1.039,1.3l-2.1,9.235A1.065,1.065,0,0,1,22.408,14.207ZM18.114,7.459H15.983V5.683a.71.71,0,0,0-.71-.71h-.71a.71.71,0,0,0-.71.71V7.459H11.721a.71.71,0,0,0-.71.71v.71a.71.71,0,0,0,.71.71h2.131v1.776a.71.71,0,0,0,.71.71h.71a.71.71,0,0,0,.71-.71V9.59h2.131a.71.71,0,0,0,.71-.71v-.71A.71.71,0,0,0,18.114,7.459Z" transform="translate(0.5 0.5)" fill="none" stroke="#000" stroke-width="1"/>
</svg>
