<svg xmlns="http://www.w3.org/2000/svg" width="20.432" height="23.351" viewBox="0 0 20.432 23.351">
  <path id="Icon_awesome-trash-alt" data-name="Icon awesome-trash-alt" d="M1.459,21.162a2.189,2.189,0,0,0,2.189,2.189H16.784a2.189,2.189,0,0,0,2.189-2.189V5.838H1.459ZM13.865,9.486a.73.73,0,1,1,1.459,0V19.7a.73.73,0,0,1-1.459,0Zm-4.378,0a.73.73,0,1,1,1.459,0V19.7a.73.73,0,0,1-1.459,0Zm-4.378,0a.73.73,0,1,1,1.459,0V19.7a.73.73,0,0,1-1.459,0ZM19.7,1.459H14.23L13.8.607A1.1,1.1,0,0,0,12.82,0H7.607a1.082,1.082,0,0,0-.976.607L6.2,1.459H.73a.73.73,0,0,0-.73.73V3.649a.73.73,0,0,0,.73.73H19.7a.73.73,0,0,0,.73-.73V2.189A.73.73,0,0,0,19.7,1.459Z"/>
</svg>
