<svg xmlns="http://www.w3.org/2000/svg" width="44.985" height="39.979" viewBox="0 0 44.985 39.979">
  <path id="Icon_awesome-edit" data-name="Icon awesome-edit" d="M31.443,6.5l7.045,7.045a.764.764,0,0,1,0,1.078L21.43,31.676l-7.248.8A1.519,1.519,0,0,1,12.5,30.8l.8-7.248L30.365,6.5A.764.764,0,0,1,31.443,6.5ZM44.095,4.709,40.284.9a3.054,3.054,0,0,0-4.311,0L33.208,3.662a.764.764,0,0,0,0,1.078l7.045,7.045a.764.764,0,0,0,1.078,0L44.095,9.02a3.055,3.055,0,0,0,0-4.311ZM29.99,27.037v7.951H5V10H22.946a.96.96,0,0,0,.664-.273L26.733,6.6A.937.937,0,0,0,26.07,5H3.749A3.75,3.75,0,0,0,0,8.746V36.237a3.75,3.75,0,0,0,3.749,3.749H31.24a3.75,3.75,0,0,0,3.749-3.749V23.913a.939.939,0,0,0-1.6-.664l-3.124,3.124A.96.96,0,0,0,29.99,27.037Z" transform="translate(0 -0.007)" fill="#593511"/>
</svg>
