<svg xmlns="http://www.w3.org/2000/svg" width="714.881" height="114.881" viewBox="0 0 714.881 114.881">
  <g id="Group_21" data-name="Group 21" transform="translate(-1167 1415)">
    <g id="Group_19" data-name="Group 19">
      <g id="noun_Scroll_3264557" transform="translate(1157 -1425)">
        <path id="Path_10" data-name="Path 10" d="M11.436,112.658h6.055v5.508a6.775,6.775,0,0,0,13.549,0v-5.508h6.054a1.436,1.436,0,0,0,1.436-1.436v-9.334a1.436,1.436,0,0,0-1.436-1.436h-1.25V98.169H699.037v2.283h-1.251a1.436,1.436,0,0,0-1.436,1.436v9.334a1.436,1.436,0,0,0,1.436,1.436h6.055v5.508a6.775,6.775,0,0,0,13.549,0v-5.508h6.055a1.436,1.436,0,0,0,1.436-1.436v-9.334a1.436,1.436,0,0,0-1.436-1.436h-1.251V34.027h1.251a1.436,1.436,0,0,0,1.436-1.436V23.256a1.436,1.436,0,0,0-1.436-1.436H717.39V16.714a6.775,6.775,0,0,0-13.549,0V21.82h-6.055a1.436,1.436,0,0,0-1.436,1.436V32.59a1.436,1.436,0,0,0,1.436,1.436h1.251v2.154H35.843V34.027h1.25a1.436,1.436,0,0,0,1.436-1.436V23.256a1.436,1.436,0,0,0-1.436-1.436H31.039V16.714a6.775,6.775,0,0,0-13.549,0V21.82H11.436A1.436,1.436,0,0,0,10,23.256V32.59a1.436,1.436,0,0,0,1.436,1.436h1.251v66.425H11.436A1.436,1.436,0,0,0,10,101.888v9.334A1.436,1.436,0,0,0,11.436,112.658Zm16.731,5.508a3.9,3.9,0,0,1-7.8,0v-5.508h7.8Zm7.49-8.38H12.872v-6.462H35.657Zm678.861,8.38a3.9,3.9,0,0,1-7.8,0v-5.508h7.8Zm7.491-8.38H699.223v-6.462h22.786Zm-15.3-93.071a3.9,3.9,0,0,1,7.8,0V21.82h-7.8Zm-7.491,7.978h22.786v6.462H699.223Zm20.1,9.334v66.425H701.909V34.027Zm-20.284,5.026V95.3H35.843V39.053ZM20.363,16.714a3.9,3.9,0,0,1,7.8,0V21.82h-7.8Zm-7.491,7.978H35.657v6.462H12.872Zm2.687,9.334H32.971v66.425H15.559Z"/>
      </g>
      <rect id="Rectangle_28" data-name="Rectangle 28" width="663" height="56" transform="translate(1193 -1386)" fill="#fff"/>
    </g>
    <g id="Group_20" data-name="Group 20" transform="translate(-253 143)">
      <text id="_THE_BOOK_HUB" data-name=" THE BOOK HUB" transform="translate(1657 -1486)" fill="#a74923" font-size="42" font-family="ProductSans-Bold, Product Sans" font-weight="700"><tspan x="0" y="0" xml:space="preserve"> THE BOOK HUB</tspan></text>
      <g id="Group_18" data-name="Group 18" transform="translate(1584.087 -1526)">
        <path id="Path_3" data-name="Path 3" d="M65.409,83.933c.371-.3-23.795-8.45-28.02-9.933C37.315,74,10.7,84.971,6.775,86.527c-.148.074.667,7.857.667,7.857.074.074.074.074,4.892,2.446,2.076,1.038,23.72,12.008,23.869,11.934,9.562-5.782,19.347-11.415,28.835-17.271,0-.074-.519-.222-.593-.222-.3-.074-25.944,14.974-28.539,16.53-.074,0-27.5-13.713-27.5-13.862-.148-2.15-.519-4.448-.593-6.671,0,0,27.279,13.269,27.946,13.195C36.8,100.315,62.815,86.008,65.409,83.933Z" transform="translate(-6.757 -74)" fill-rule="evenodd"/>
        <path id="Path_4" data-name="Path 4" d="M470.969,326.519l-.964-.519c-8.006,4.818-16.011,9.562-24.017,14.381-.148,0,16.975-6.375,24.758-9.266a35.683,35.683,0,0,0,4.744-2C475.564,329.039,471.488,326.89,470.969,326.519Z" transform="translate(-413.429 -307.32)" fill-rule="evenodd"/>
        <path id="Path_5" data-name="Path 5" d="M233.445,460.375s-10.452-5.337-12.453-6.375c-.074,0,6.227,5.337,9.192,7.561C230.184,461.561,233,460.523,233.445,460.375Z" transform="translate(-205.111 -425.832)" fill-rule="evenodd"/>
        <path id="Path_6" data-name="Path 6" d="M74.741,381.371,74,381c0,.667.074,2.372.074,2.891a37.388,37.388,0,0,0,3.336,3.187c1.408,1.26,16.753,14.9,16.753,14.9,5.708-2.15,36.322-14.529,36.248-14.6a6.181,6.181,0,0,0-.889-.593v.519c-.074.222-35.136,13.862-35.136,13.862-5.485-4.6-10.822-9.562-16.16-14.232-2.594-2.3-3.113-2.891-3.262-3.187C74.89,383.669,74.815,381.89,74.741,381.371Z" transform="translate(-69.016 -358.243)" fill-rule="evenodd"/>
        <path id="Path_7" data-name="Path 7" d="M445.046,562.136c.074-.074-5.411,7.19-5.411,7.19-2.594-.667-5.115-1.408-7.635-2.15,2.965-1.186,13.269-5.263,13.195-5.189l-.222.222C444.972,562.284,444.972,562.21,445.046,562.136Z" transform="translate(-400.478 -525.814)" fill-rule="evenodd"/>
        <path id="Path_8" data-name="Path 8" d="M60.892,466,56,470.225c4.744,1.408,9.488,2.891,14.306,4.151,0,0-5.856-5.189-7.857-6.894A13.351,13.351,0,0,1,60.892,466Z" transform="translate(-52.35 -436.943)" fill-rule="evenodd"/>
        <path id="Path_9" data-name="Path 9" d="M57.26,525.367a3.462,3.462,0,0,0-1.038-.3A.574.574,0,0,0,56,525s.445,6.968.519,6.968c0,0,0,.074,5.856,1.779,5.782,1.779,17.346,5.263,23.127,7.042s5.782,1.779,5.782,1.7c2.817-3.929,12.453-17.568,12.231-17.494-.148.074-.593.222-.815.3-.89.371-9.711,13.936-11.86,16.382,0,0-25.351-7.635-27.649-8.3-5.559-1.7-5.559-1.7-5.634-1.7C57.557,531.668,57.186,526.034,57.26,525.367Z" transform="translate(-52.35 -491.565)" fill-rule="evenodd"/>
      </g>
    </g>
    <path id="Path_16" data-name="Path 16" d="M0,0H18V67H0Z" transform="translate(1172 -1391)" fill="#d7a55e"/>
    <rect id="Rectangle_30" data-name="Rectangle 30" width="19" height="67" transform="translate(1858 -1391)" fill="#d7a55e"/>
    <rect id="Rectangle_31" data-name="Rectangle 31" width="23" height="8" transform="translate(1856 -1401)" fill="#593511"/>
    <path id="Path_11" data-name="Path 11" d="M4.5,0C6.985,0,8.886,2.239,8.886,5c.227,4.772.541,3.892-.3,5-3.73-.04-2.694,0-4.085,0-1.19,0-.369.032-4.179,0C-.346,9.319,0,6.439,0,5A4.77,4.77,0,0,1,4.5,0Z" transform="translate(1863 -1413)" fill="#d7a55e"/>
    <rect id="Rectangle_32" data-name="Rectangle 32" width="23" height="8" transform="translate(1856 -1322)" fill="#593511"/>
    <path id="Path_12" data-name="Path 12" d="M4.5,9.855A4.287,4.287,0,0,0,8.886,5.226c.227-4.973.541-4.056-.3-5.211-3.73.041-2.694,0-4.085,0-1.19,0-.369-.033-4.179,0C-.346.725,0,3.726,0,5.226A4.374,4.374,0,0,0,4.5,9.855Z" transform="translate(1863 -1312.413)" fill="#d7a55e"/>
    <rect id="Rectangle_33" data-name="Rectangle 33" width="24" height="8" transform="translate(1169 -1401)" fill="#593511"/>
    <path id="Path_13" data-name="Path 13" d="M4.5,0C6.985,0,8.886,2.239,8.886,5c.227,4.772.541,3.892-.3,5-3.73-.04-2.694,0-4.085,0-1.19,0-.369.032-4.179,0C-.346,9.319,0,6.439,0,5A4.77,4.77,0,0,1,4.5,0Z" transform="translate(1177 -1413)" fill="#d7a55e"/>
    <rect id="Rectangle_34" data-name="Rectangle 34" width="24" height="8" transform="translate(1169 -1322)" fill="#593511"/>
    <path id="Path_14" data-name="Path 14" d="M4.5,9.855A4.287,4.287,0,0,0,8.886,5.226c.227-4.973.541-4.056-.3-5.211-3.73.041-2.694,0-4.085,0-1.19,0-.369-.033-4.179,0C-.346.725,0,3.726,0,5.226A4.374,4.374,0,0,0,4.5,9.855Z" transform="translate(1177 -1312.413)" fill="#d7a55e"/>
  </g>
</svg>
